<svg width="32" height="32" viewBox="0 0 32 32" fill="none" xmlns="http://www.w3.org/2000/svg">
<rect width="32" height="32" rx="16" fill="white"/>
<path d="M22.7562 9.23789C21.5448 8.66493 20.2458 8.24279 18.8876 8.00101C18.8628 7.99635 18.8381 8.00801 18.8254 8.03133C18.6583 8.33763 18.4733 8.73722 18.3437 9.0513C16.8828 8.82585 15.4295 8.82585 13.9986 9.0513C13.869 8.73024 13.6772 8.33763 13.5094 8.03133C13.4966 8.00879 13.4719 7.99713 13.4472 8.00101C12.0897 8.24202 10.7907 8.66415 9.57858 9.23789C9.56809 9.24256 9.5591 9.25034 9.55313 9.26044C7.08915 13.055 6.41417 16.7563 6.74529 20.4118C6.74679 20.4297 6.75653 20.4468 6.77001 20.4576C8.39567 21.6883 9.9704 22.4354 11.5159 22.9306C11.5406 22.9384 11.5668 22.9291 11.5826 22.9081C11.9482 22.3934 12.274 21.8508 12.5535 21.2801C12.57 21.2467 12.5542 21.2071 12.5205 21.1939C12.0036 20.9917 11.5114 20.7453 11.0379 20.4654C11.0005 20.4429 10.9975 20.3877 11.0319 20.3612C11.1316 20.2843 11.2312 20.2042 11.3264 20.1233C11.3436 20.1086 11.3676 20.1055 11.3878 20.1148C14.4983 21.5787 17.8657 21.5787 20.9395 20.1148C20.9597 20.1047 20.9837 20.1078 21.0017 20.1226C21.0968 20.2034 21.1965 20.2843 21.2968 20.3612C21.3313 20.3877 21.329 20.4429 21.2916 20.4654C20.8181 20.7507 20.3259 20.9917 19.8083 21.1931C19.7746 21.2063 19.7596 21.2467 19.7761 21.2801C20.0615 21.85 20.3874 22.3926 20.7462 22.9073C20.7612 22.9291 20.7881 22.9384 20.8129 22.9306C22.3659 22.4354 23.9406 21.6883 25.5662 20.4576C25.5805 20.4468 25.5895 20.4304 25.591 20.4126C25.9873 16.1865 24.9272 12.5155 22.7809 9.26121C22.7756 9.25034 22.7667 9.24256 22.7562 9.23789ZM13.018 18.186C12.0815 18.186 11.3099 17.2998 11.3099 16.2114C11.3099 15.123 12.0665 14.2367 13.018 14.2367C13.9769 14.2367 14.741 15.1307 14.726 16.2114C14.726 17.2998 13.9694 18.186 13.018 18.186ZM19.3333 18.186C18.3969 18.186 17.6252 17.2998 17.6252 16.2114C17.6252 15.123 18.3819 14.2367 19.3333 14.2367C20.2922 14.2367 21.0563 15.1307 21.0414 16.2114C21.0414 17.2998 20.2922 18.186 19.3333 18.186Z" fill="#212121" fill-opacity="0.7"/>
</svg>
