<svg width="32" height="32" viewBox="0 0 32 32" fill="none" xmlns="http://www.w3.org/2000/svg">
<path fill-rule="evenodd" clip-rule="evenodd" d="M15.9943 0.799805C12.2196 0.801763 8.56866 2.13869 5.69433 4.57152C2.82001 7.00435 0.909712 10.3745 0.305025 14.0792C-0.299662 17.784 0.440684 21.5818 2.3937 24.7936C4.34671 28.0054 7.38503 30.4218 10.9654 31.6106C11.7552 31.7572 12.0528 31.2676 12.0528 30.8514C12.0528 30.4351 12.037 29.2282 12.0317 27.9088C7.60837 28.8643 6.67368 26.0422 6.67368 26.0422C5.95226 24.2096 4.90961 23.7279 4.90961 23.7279C3.46676 22.7488 5.01757 22.7671 5.01757 22.7671C6.61576 22.8797 7.45567 24.3981 7.45567 24.3981C8.87219 26.8145 11.176 26.1155 12.0817 25.7071C12.2239 24.6835 12.6373 23.9871 13.0928 23.5918C9.55938 23.1938 5.84694 21.8377 5.84694 15.7798C5.82504 14.2087 6.41138 12.6893 7.48463 11.5361C7.32139 11.1381 6.77636 9.53071 7.63997 7.34733C7.63997 7.34733 8.97488 6.92322 12.0133 8.96784C14.6194 8.2592 17.3691 8.2592 19.9753 8.96784C23.0111 6.92322 24.3433 7.34733 24.3433 7.34733C25.2096 9.52547 24.6645 11.1329 24.5013 11.5361C25.578 12.6895 26.1655 14.2115 26.1416 15.785C26.1416 21.8561 22.4213 23.1938 18.8826 23.5839C19.4513 24.0761 19.9595 25.0369 19.9595 26.5134C19.9595 28.6287 19.9411 30.3304 19.9411 30.8514C19.9411 31.2729 20.228 31.765 21.0337 31.6106C24.6145 30.4216 27.6531 28.0048 29.6061 24.7925C31.5591 21.5801 32.299 17.7817 31.6936 14.0766C31.0883 10.3715 29.177 7.00139 26.3017 4.56898C23.4265 2.13657 19.7747 0.800522 15.9995 0.799805H15.9943Z" fill="white"/>
</svg>
