<svg width="32" height="32" viewBox="0 0 32 32" fill="none" xmlns="http://www.w3.org/2000/svg">
<rect width="32" height="32" rx="16" fill="white"/>
<g clip-path="url(#clip0_411_1838)">
<path d="M6.66675 9.15703C6.66675 8.55642 6.87696 8.06092 7.29738 7.67055C7.71779 7.28015 8.26435 7.08496 8.93702 7.08496C9.59769 7.08496 10.1322 7.27714 10.5406 7.66154C10.961 8.05793 11.1713 8.57444 11.1713 9.21109C11.1713 9.78766 10.9671 10.2681 10.5586 10.6525C10.1382 11.0489 9.58567 11.2471 8.90098 11.2471H8.88296C8.2223 11.2471 7.68778 11.0489 7.27936 10.6525C6.87095 10.2561 6.66675 9.75763 6.66675 9.15703ZM6.90098 24.9228V12.8868H10.901V24.9228H6.90098ZM13.1172 24.9228H17.1172V18.2021C17.1172 17.7816 17.1653 17.4573 17.2613 17.2291C17.4295 16.8207 17.6848 16.4753 18.0271 16.1931C18.3695 15.9108 18.7989 15.7696 19.3154 15.7696C20.6607 15.7696 21.3334 16.6765 21.3334 18.4904V24.9228H25.3334V18.0219C25.3334 16.2441 24.913 14.8958 24.0722 13.9769C23.2313 13.0579 22.1202 12.5985 20.7388 12.5985C19.1893 12.5985 17.9821 13.2651 17.1172 14.5985V14.6345H17.0992L17.1172 14.5985V12.8868H13.1172C13.1412 13.2711 13.1532 14.4663 13.1532 16.4723C13.1532 18.4783 13.1412 21.2952 13.1172 24.9228Z" fill="#212121" fill-opacity="0.7"/>
</g>
<defs>
<clipPath id="clip0_411_1838">
<rect x="6.66675" y="6.66699" width="18.6667" height="18.6667" fill="white"/>
</clipPath>
</defs>
</svg>
