<svg width="40" height="40" viewBox="0 0 40 40" fill="none" xmlns="http://www.w3.org/2000/svg">
<rect width="40" height="40" rx="20" fill="white" fill-opacity="0.2"/>
<path fill-rule="evenodd" clip-rule="evenodd" d="M12 11H15.5C16.05 11 16.5 11.45 16.5 12C16.5 13.25 16.7 14.45 17.07 15.57C17.18 15.92 17.1 16.31 16.82 16.59L14.62 18.79C16.06 21.62 18.38 23.93 21.21 25.38L23.41 23.18C23.61 22.99 23.86 22.89 24.12 22.89C24.22 22.89 24.33 22.9 24.43 22.94C25.55 23.31 26.76 23.51 28 23.51C28.55 23.51 29 23.96 29 24.51V28C29 28.55 28.55 29 28 29C18.61 29 11 21.39 11 12C11 11.45 11.45 11 12 11ZM14.54 13C14.6 13.89 14.75 14.76 14.99 15.59L13.79 16.79C13.38 15.59 13.12 14.32 13.03 13H14.54ZM24.4 25.02C25.25 25.26 26.12 25.41 27 25.47V26.96C25.68 26.87 24.41 26.61 23.2 26.21L24.4 25.02Z" fill="#FEFEFE"/>
</svg>
